<?xml version="1.0" encoding="UTF-8"?>
<svg id="Layer_1" data-name="Layer 1" xmlns="http://www.w3.org/2000/svg" version="1.1" viewBox="0 0 587.3 88.3">
  <defs>
    <style>
      .cls-1 {
        fill: #000;
      }

      .cls-1, .cls-2, .cls-3 {
        stroke-width: 0px;
      }

      .cls-2 {
        fill: #010101;
      }

      .cls-3 {
        fill: #231f20;
      }
    </style>
  </defs>
  <g>
    <path class="cls-3" d="M0,23.1l13.1,7.6c3.8,2.2,8.5,2.2,12.4,0l28.4-16.3c2-1.1,4.4-1.2,6.5-.2l31.3,15.3c1.5.7,3.2.8,4.7.2l1.9-.7c1.3-.5,1.3-2.2,0-2.8L48.2,1.3c-3.7-1.8-8.1-1.7-11.7.4L0,23.1Z"/>
    <path class="cls-3" d="M11.6,46.9v18.4l15.2,11.9v-14c0-3.3-1.6-6.5-4.3-8.4l-10.9-7.9Z"/>
    <path class="cls-3" d="M17.2,42c-.6,3.2,8.9,3.9,12.4,8.7,3.5,4.8,1,28.7,6.2,28.7s4.2-21.6,8.1-30.4,6.4-8.4,6.4-8.4c0,0,1.4,38.8,7.3,38.8s3.5-33.8,6.9-38.3c2.8.7,4.5,2.1,6.7,7.5,4.9,12.1.2,30.7,8,30.4s0-25.9,8.8-30.6c5.7-3.1,11.2-2,10.2-5.8s-11,.3-18.4,0c-7.4-.2-11.9-6.1-11.9-6.1,0,0,10.8-8.5,7-11.7s-6.2,9-16.7,8.7-14.8-10.3-18.2-7.4,6.6,9.2,6.8,10.4-5.2,6.1-10.4,6.4c-5.2.3-18.5-4.2-19.1-1h0Z"/>
    <circle class="cls-3" cx="35.7" cy="34.9" r="4.6"/>
    <circle class="cls-3" cx="57.7" cy="25.9" r="4.5"/>
    <circle class="cls-3" cx="79.7" cy="34.9" r="4.6"/>
  </g>
  <path class="cls-2" d="M119.3,35.5c0,2.2-.4,8.2-.4,11.7s0,3.9.2,5.1c.7,0,2.6.2,4.8.2s4.1,0,4.8-.2c.1-1.3.2-3.7.2-5.1,0-3.5-.2-9.5-.4-11.7h9.4c-.4,3.6-.4,10.2-.4,20.8s0,17.2.4,20.8h-9.5c.1-2.3.4-6.8.4-12.8s0-4-.1-5.5c-.8,0-2.6-.2-4.9-.2s-4.1,0-4.9.2c0,1.6,0,3.6,0,5.5,0,6,.3,10.5.4,12.8h-9.5c.4-3.6.4-10.2.4-20.8s0-17.2-.4-20.8h9.6Z"/>
  <path class="cls-2" d="M159.1,77.2c-.5-.8-.8-1.7-1-2-1.9,1.4-4.1,2.7-6.9,2.7-4,0-8.6-2.6-8.6-8.6s5.7-10.3,14.6-12.6c-.6-2.7-2-4.4-4.7-4.4s-5.3,1.3-7.2,2.6v-7.4c1.2,0,2.8-.3,4.1-.3,6.6,0,10.4.8,13,3.5,3,3,3,7.4,3,9.9v7.4c0,3.6.6,7.2,1.3,9.3h-7.7,0ZM157.6,62c-2.7.3-7,2.1-7,6.5s1.5,3.8,3.6,3.8,2.7-.7,3.4-1.4v-8.9Z"/>
  <path class="cls-2" d="M173.6,77.9l-2.6-1.5c.5-2.4.6-6.3.6-11.7v-18.8c0-2.7,0-6.3-.6-10.3h8.5v13.5c1.7-1.3,4.2-1.9,5.9-1.9,5.5,0,10.4,4.6,10.4,14.1s-5.5,16.8-12,16.8-5.5-1.4-7.2-2.9l-3,2.9v-.2ZM179.5,68.7c0,1.5.1,2.2.4,2.7.5.7,1.6,1.2,2.7,1.2,2.7,0,4.9-2.8,4.9-9.7s-2.4-9.9-5.1-9.9-2.9.5-2.9,1.8v14h0Z"/>
  <path class="cls-2" d="M205,35.5c2.7,0,4.8,2.2,4.8,4.8s-2.2,4.8-4.8,4.8-4.8-2.2-4.8-4.8,2.2-4.8,4.8-4.8ZM209.4,47.8c-.3,1.8-.5,6.3-.5,10.7v7.9c0,4.4.2,9,.5,10.7h-8.8c.3-1.8.5-6.3.5-10.7v-7.9c0-4.4-.2-9-.5-10.7h8.8Z"/>
  <path class="cls-2" d="M224.9,38.9c0,0-.3,2.2-.3,4.6v4.3h4.8v5.4h-4.8v13.7c0,4.5.6,5.5,2.7,5.5s1.5,0,2.2-.2v4.8c-1.7.6-4.1,1.1-6.1,1.1-6,0-6.6-4.1-6.6-10.5v-14.3h-3.6v-5.4h3.6v-4.7c0-1.9-.1-3.4-.2-4.1h8.3v-.2Z"/>
  <path class="cls-2" d="M247.7,77.2c-.5-.8-.8-1.7-1-2-1.9,1.4-4.1,2.7-6.9,2.7-4,0-8.6-2.6-8.6-8.6s5.7-10.3,14.6-12.6c-.6-2.7-2-4.4-4.7-4.4s-5.3,1.3-7.2,2.6v-7.4c1.2,0,2.8-.3,4.1-.3,6.6,0,10.4.8,13,3.5,3,3,3,7.4,3,9.9v7.4c0,3.6.6,7.2,1.3,9.3h-7.7,0ZM246.2,62c-2.7.3-7,2.1-7,6.5s1.5,3.8,3.6,3.8,2.7-.7,3.4-1.4v-8.9Z"/>
  <path class="cls-2" d="M269.2,38.9c0,0-.3,2.2-.3,4.6v4.3h4.8v5.4h-4.8v13.7c0,4.5.6,5.5,2.7,5.5s1.5,0,2.2-.2v4.8c-1.7.6-4.1,1.1-6.1,1.1-6,0-6.6-4.1-6.6-10.5v-14.3h-3.6v-5.4h3.6v-4.7c0-1.9-.1-3.4-.2-4.1h8.3v-.2Z"/>
  <path class="cls-2" d="M306.7,41c-1-.4-1.7-.5-2.2-.5-2.4,0-3.4,1.9-3.4,4.8s.2,1.9.4,2.4h4.6v5.4h-4.7v13.3c0,4.4.2,9,.5,10.7h-8.8c.3-1.8.5-6.3.5-10.7v-13.3h-3.7v-5.4h3.7c0-5.1.7-7.4,2.3-9.2,1.9-2.2,4.8-3.4,8.6-3.4s1.5,0,2.2.2v5.6h0Z"/>
  <path class="cls-2" d="M319.6,47.1c8.6,0,12.7,8.2,12.7,15.4s-4.1,15.4-12.7,15.4-12.7-8.2-12.7-15.4,4.1-15.4,12.7-15.4ZM319.6,52.5c-2.8,0-4.1,4.1-4.1,10s1.3,10,4.1,10,4.1-4.1,4.1-10-1.3-10-4.1-10Z"/>
  <path class="cls-2" d="M344.1,47.8c.4,1.3.7,3.4.7,4.2h.1c2.1-3.1,4.7-4.9,9-4.9v6.9c-.3,0-1-.2-1.9-.2-1.9,0-3.3.8-4.4,2.2-2.1,2.7-2.2,7.3-2.2,10.6s.2,9,.5,10.7h-9.1c.3-1.8.5-6.3.5-10.7v-7.9c0-4.4-.4-9-.9-10.7h7.8v-.2Z"/>
  <path class="cls-2" d="M381.9,35.5c-.1,2.2-.4,8.2-.4,11.7s0,3.9.2,5.1c.7,0,2.6.2,4.8.2s4.1,0,4.8-.2c.1-1.3.2-3.7.2-5.1,0-3.5-.2-9.5-.3-11.7h9.4c-.4,3.6-.4,10.2-.4,20.8s0,17.2.4,20.8h-9.5c.1-2.3.4-6.8.4-12.8s0-4-.1-5.5c-.8,0-2.6-.2-4.9-.2s-4.1,0-4.9.2c-.1,1.6-.1,3.6-.1,5.5,0,6,.3,10.5.4,12.8h-9.5c.4-3.6.4-10.2.4-20.8s0-17.2-.4-20.8h9.5Z"/>
  <path class="cls-2" d="M422.4,77.2c-.4-1.3-.6-2.2-.8-3.1-1.6,2.1-4,3.8-7.2,3.8-5.8,0-7.9-4.8-7.9-9.9v-9.5c0-4.4-.2-9-.5-10.7h8.8c-.3,1.8-.5,6.3-.5,10.7v7.4c0,4,.9,5.6,3.2,5.6s3.6-1.3,3.6-2.1v-10.9c0-4.4-.2-9-.5-10.7h8.8c-.3,1.8-.5,6.3-.5,10.7v8.3c0,2.5,0,7.6.8,10.4h-7.4.1Z"/>
  <path class="cls-2" d="M442.4,50.7c2.2-2.2,4.6-3.6,7.4-3.6,4.2,0,6,2.7,6.7,3.9,1.4-1.7,4.3-3.9,8.1-3.9s7.8,3.5,7.8,10.7v8.7c0,4.4.2,9,.5,10.7h-8.8c.3-1.8.5-6.3.5-10.7v-9.2c0-2.3-.7-4.1-3-4.1s-2.6.8-3.4,1.8c-.5.7-.6,1.6-.6,3.1v8.4c0,4.4.2,9,.5,10.7h-8.8c.3-1.8.5-6.3.5-10.7v-9.2c0-2.3-.7-4.1-3-4.1s-2.6.8-3.4,1.8c-.5.7-.6,1.6-.6,3.1v8.4c0,4.4.2,9,.5,10.7h-8.8c.3-1.8.5-6.3.5-10.7v-8.3c0-3.3-.4-8-.8-10.4h7.5l.8,2.9h-.1Z"/>
  <path class="cls-2" d="M492.9,77.2c-.5-.8-.8-1.7-1-2-1.9,1.4-4.1,2.7-6.9,2.7-4,0-8.6-2.6-8.6-8.6s5.7-10.3,14.6-12.6c-.6-2.7-2-4.4-4.7-4.4s-5.3,1.3-7.2,2.6v-7.4c1.2,0,2.8-.3,4.1-.3,6.6,0,10.4.8,13,3.5,3,3,3,7.4,3,9.9v7.4c0,3.6.6,7.2,1.3,9.3h-7.7.1ZM491.5,62c-2.7.3-7,2.1-7,6.5s1.5,3.8,3.6,3.8,2.7-.7,3.4-1.4v-8.9Z"/>
  <path class="cls-2" d="M511.7,47.8c.4,1.3.6,2.2.8,3.1,1.6-2.1,4-3.8,7.2-3.8,5.8,0,7.9,4.8,7.9,9.9v9.5c0,4.4.2,9,.5,10.7h-8.8c.3-1.8.5-6.3.5-10.7v-7.4c0-4-.9-5.6-3.2-5.6s-3.6,1.3-3.6,3.7v9.2c0,4.4.2,9,.5,10.7h-8.8c.3-1.8.5-6.3.5-10.7v-8.3c0-2.5,0-7.6-.8-10.4h7.4-.1Z"/>
  <path class="cls-2" d="M537.8,35.5c2.7,0,4.8,2.2,4.8,4.8s-2.2,4.8-4.8,4.8-4.8-2.2-4.8-4.8,2.2-4.8,4.8-4.8ZM542.1,47.8c-.3,1.8-.5,6.3-.5,10.7v7.9c0,4.4.2,9,.5,10.7h-8.8c.3-1.8.5-6.3.5-10.7v-7.9c0-4.4-.2-9-.5-10.7h8.8Z"/>
  <path class="cls-2" d="M557.7,38.9c0,0-.3,2.2-.3,4.6v4.3h4.8v5.4h-4.8v13.7c0,4.5.6,5.5,2.7,5.5s1.5,0,2.2-.2v4.8c-1.7.6-4.1,1.1-6.1,1.1-6,0-6.6-4.1-6.6-10.5v-14.3h-3.6v-5.4h3.6v-4.7c0-1.9,0-3.4-.2-4.1h8.3v-.2Z"/>
  <path class="cls-2" d="M587.3,47.8c-2.6,11.5-4.1,22.7-8.6,31.5-3,6-7.6,9-12.7,9s-2,0-2.9-.4v-6.7c.7.5,2.5.9,3.5.9,3.3,0,5.4-4.1,5.4-5.8s0-.8-2.1-6.1c-4.3-11-6.6-19.7-7.1-22.5h8.7c.6,3.7,2.2,11.6,4.9,18.3h0c1.7-5.7,3.1-13,3.7-18.3h7.1Z"/>
  <g>
    <path class="cls-1" d="M123,7.9c-1.1-1.4-2.6-2.6-4.4-2.6-3.2,0-5.3,3.9-5.3,8.8s2.2,7.6,4.8,7.6,1.1-.2,1.5-.3v-5.5c0-.7,0-1.9-.1-2.2h4.8c-.1,1.6-.2,3.5-.2,5.3s0,3.1,0,4c-1.5,1.1-4.1,1.8-6.2,1.8-4.7,0-9.4-3.5-9.4-10.4s4.5-12.1,11-12.1,2.3.2,3.5.5v5.1Z"/>
    <path class="cls-1" d="M130.9,9c.2.7.4,1.8.4,2.2h0c1.1-1.6,2.5-2.5,4.7-2.5v3.6c-.2,0-.5-.1-1-.1-1,0-1.7.4-2.3,1.1-1.1,1.4-1.1,3.8-1.1,5.5s0,4.7.2,5.6h-4.7c.2-.9.2-3.3.2-5.6v-4.1c0-2.3-.2-4.7-.5-5.6h4.1Z"/>
    <path class="cls-1" d="M141.2,18.6c.3,1.6,1.4,3.1,3,3.1s2.1-.6,3.1-1.4l1.5,1.6c-1.3,1.5-3.4,2.7-5.7,2.7-3.6,0-6.6-3.2-6.6-7.8s2.4-8.2,6.7-8.2,3.3.8,4.2,2.1,1.2,3.2,1.4,5.2l-7.5,2.7ZM143.3,15c1.1-.4,1.3-.8,1.3-1.4,0-1.2-.6-2.5-1.8-2.5s-2.1,2-2.1,4.1,0,.5,0,.7l2.5-.9Z"/>
    <path class="cls-1" d="M158.4,24.3c-.2-.4-.4-.9-.5-1.1-1,.7-2.1,1.4-3.6,1.4-2.1,0-4.5-1.4-4.5-4.5s3-5.4,7.6-6.5c-.3-1.4-1.1-2.3-2.4-2.3s-2.7.7-3.8,1.3v-3.8c.6,0,1.5-.2,2.1-.2,3.4,0,5.4.4,6.8,1.8,1.5,1.5,1.6,3.8,1.6,5.1v3.8c0,1.9.3,3.7.7,4.8h-4ZM157.6,16.4c-1.4.2-3.6,1.1-3.6,3.4s.8,2,1.9,2,1.4-.4,1.8-.7v-4.6Z"/>
    <path class="cls-1" d="M169.6,4.4c0,0-.2,1.2-.2,2.4v2.2h2.5v2.8h-2.5v7.1c0,2.3.3,2.8,1.4,2.8s.8,0,1.1-.1v2.5c-.9.3-2.1.5-3.1.5-3.1,0-3.4-2.1-3.4-5.4v-7.4h-1.8v-2.8h1.8v-2.5c0-1,0-1.8-.1-2.1h4.3Z"/>
    <path class="cls-1" d="M177.6,18.6c.3,1.6,1.4,3.1,3,3.1s2.1-.6,3.1-1.4l1.5,1.6c-1.3,1.5-3.4,2.7-5.7,2.7-3.6,0-6.6-3.2-6.6-7.8s2.4-8.2,6.7-8.2,3.3.8,4.2,2.1,1.2,3.2,1.4,5.2l-7.5,2.7ZM179.7,15c1.1-.4,1.3-.8,1.3-1.4,0-1.2-.6-2.5-1.8-2.5s-2.1,2-2.1,4.1,0,.5,0,.7l2.5-.9Z"/>
    <path class="cls-1" d="M191,9c.2.7.4,1.8.4,2.2h0c1.1-1.6,2.5-2.5,4.7-2.5v3.6c-.2,0-.5-.1-1-.1-1,0-1.7.4-2.3,1.1-1.1,1.4-1.1,3.8-1.1,5.5s0,4.7.2,5.6h-4.7c.2-.9.2-3.3.2-5.6v-4.1c0-2.3-.2-4.7-.5-5.6h4.1Z"/>
    <path class="cls-1" d="M213.7,2.7c1.7,6,5.1,16.6,6.8,21.6h-5.1c-.2-.9-.7-2.8-1.3-4.7h-5.8c-.7,2.2-.9,3.7-1.2,4.7h-4.1c.8-2.4,3.6-10.6,5.4-16.8.5-1.7.9-2.7.9-3.1,0-.6-.2-1.2-.6-1.8h5ZM213.2,16.4c-.6-2.3-1.3-4.6-2-6.9h0c-.7,2.3-1.5,4.6-2.1,6.9h4.1Z"/>
    <path class="cls-1" d="M221.7,24.3c.2-.9.2-3.3.2-5.6v-10c0-1.2,0-5.1-.2-6.1h4.3v16c0,2.3,0,4.7.2,5.6h-4.5Z"/>
    <path class="cls-1" d="M230.4,24.6l-1.3-.8c.2-1.2.3-3.3.3-6.1v-9.7c0-1.4,0-3.3-.3-5.4h4.4v7c.9-.7,2.2-1,3.1-1,2.9,0,5.4,2.4,5.4,7.3s-2.8,8.7-6.2,8.7-2.8-.7-3.8-1.5l-1.5,1.5ZM233.5,19.8c0,.8,0,1.2.2,1.4.2.4.8.6,1.4.6,1.4,0,2.5-1.5,2.5-5s-1.2-5.1-2.7-5.1-1.5.2-1.5.9v7.3Z"/>
    <path class="cls-1" d="M252.4,24.3c-.2-.7-.3-1.1-.4-1.6-.8,1.1-2.1,2-3.7,2-3,0-4.1-2.5-4.1-5.1v-4.9c0-2.3,0-4.7-.2-5.6h4.5c-.2.9-.2,3.3-.2,5.6v3.8c0,2.1.5,2.9,1.6,2.9s1.9-.7,1.9-1.1v-5.6c0-2.3,0-4.7-.2-5.6h4.5c-.2.9-.2,3.3-.2,5.6v4.3c0,1.3,0,3.9.4,5.4h-3.8Z"/>
    <path class="cls-1" d="M271,9.3c-.5,1.2-.5,3.6-.5,5.1v11.7c0,.7.1,2.8.3,4h-4.5c0-.5.2-3,.2-6.4-1,.7-2.1,1.1-3.3,1.1-2.6,0-5.1-2.1-5.1-6.8s3-9.1,6.5-9.1,2.5.6,3.4,1.4c.3-.2.9-.9,1.7-1.5l1.3.7ZM266.5,12.3c0-.6-.6-1-1.4-1-1.6,0-2.8,1.9-2.8,5.5s.9,4.9,2.5,4.9,1.6-.5,1.6-1.1v-8.3Z"/>
    <path class="cls-1" d="M281.5,24.3c-.2-.7-.3-1.1-.4-1.6-.8,1.1-2.1,2-3.7,2-3,0-4.1-2.5-4.1-5.1v-4.9c0-2.3,0-4.7-.2-5.6h4.5c-.2.9-.2,3.3-.2,5.6v3.8c0,2.1.5,2.9,1.6,2.9s1.9-.7,1.9-1.1v-5.6c0-2.3,0-4.7-.2-5.6h4.5c-.2.9-.2,3.3-.2,5.6v4.3c0,1.3,0,3.9.4,5.4h-3.8Z"/>
    <path class="cls-1" d="M291.9,18.6c.3,1.6,1.4,3.1,3,3.1s2.2-.6,3.1-1.4l1.5,1.6c-1.3,1.5-3.4,2.7-5.7,2.7-3.6,0-6.6-3.2-6.6-7.8s2.4-8.2,6.7-8.2,3.3.8,4.2,2.1,1.2,3.2,1.4,5.2l-7.5,2.7ZM294.1,15c1.1-.4,1.3-.8,1.3-1.4,0-1.2-.6-2.5-1.8-2.5s-2.1,2-2.1,4.1,0,.5,0,.7l2.5-.9Z"/>
    <path class="cls-1" d="M305.4,9c.2.7.4,1.8.4,2.2h0c1.1-1.6,2.5-2.5,4.7-2.5v3.6c-.2,0-.5-.1-1-.1-1,0-1.7.4-2.3,1.1-1.1,1.4-1.1,3.8-1.1,5.5s0,4.7.2,5.6h-4.7c.2-.9.2-3.3.2-5.6v-4.1c0-2.3-.2-4.7-.5-5.6h4.1Z"/>
    <path class="cls-1" d="M323.7,9.3c-.5,1.2-.5,3.6-.5,5.1v11.7c0,.7.1,2.8.3,4h-4.5c0-.5.2-3,.2-6.4-1,.7-2.1,1.1-3.3,1.1-2.6,0-5.1-2.1-5.1-6.8s3-9.1,6.5-9.1,2.5.6,3.4,1.4c.3-.2.9-.9,1.7-1.5l1.3.7ZM319.2,12.3c0-.6-.6-1-1.4-1-1.6,0-2.8,1.9-2.8,5.5s.9,4.9,2.5,4.9,1.6-.5,1.6-1.1v-8.3Z"/>
    <path class="cls-1" d="M334.2,24.3c-.2-.7-.3-1.1-.4-1.6-.8,1.1-2.1,2-3.7,2-3,0-4.1-2.5-4.1-5.1v-4.9c0-2.3,0-4.7-.2-5.6h4.5c-.2.9-.2,3.3-.2,5.6v3.8c0,2.1.5,2.9,1.6,2.9s1.9-.7,1.9-1.1v-5.6c0-2.3,0-4.7-.2-5.6h4.5c-.2.9-.2,3.3-.2,5.6v4.3c0,1.3,0,3.9.4,5.4h-3.8Z"/>
    <path class="cls-1" d="M344.6,18.6c.3,1.6,1.4,3.1,3,3.1s2.1-.6,3.1-1.4l1.5,1.6c-1.3,1.5-3.4,2.7-5.7,2.7-3.6,0-6.6-3.2-6.6-7.8s2.4-8.2,6.7-8.2,3.3.8,4.2,2.1,1.2,3.2,1.4,5.2l-7.5,2.7ZM346.8,15c1.1-.4,1.3-.8,1.3-1.4,0-1.2-.6-2.5-1.8-2.5s-2.1,2-2.1,4.1,0,.5,0,.7l2.5-.9Z"/>
  </g>
</svg>