<?xml version="1.0" standalone="no"?>
<!DOCTYPE svg PUBLIC "-//W3C//DTD SVG 20010904//EN"
 "http://www.w3.org/TR/2001/REC-SVG-20010904/DTD/svg10.dtd">
<svg version="1.0" xmlns="http://www.w3.org/2000/svg"
 width="700.000000pt" height="700.000000pt" viewBox="0 0 700.000000 700.000000"
 preserveAspectRatio="xMidYMid meet">
<metadata>
Created by potrace 1.14, written by Peter Selinger 2001-2017
</metadata>
<g transform="translate(0.000000,700.000000) scale(0.100000,-0.100000)"
fill="#000000" stroke="none">
<path d="M2908 6145 c-2 -2 -19 -7 -38 -10 -104 -18 -173 -47 -345 -148 -326
-190 -463 -271 -497 -293 -21 -13 -40 -24 -42 -24 -3 0 -45 -24 -93 -53 -49
-30 -109 -65 -133 -79 -25 -14 -173 -101 -330 -193 -157 -92 -310 -182 -340
-200 -185 -107 -888 -520 -903 -530 -17 -12 -16 -14 10 -28 28 -14 342 -197
441 -255 29 -18 56 -32 59 -32 4 0 14 -6 22 -14 9 -7 41 -27 71 -43 30 -17
111 -63 180 -103 130 -75 191 -103 275 -126 178 -49 389 -32 559 45 34 15 216
117 406 226 190 109 361 207 380 218 33 18 576 330 705 405 33 19 78 44 100
57 71 39 360 206 370 215 35 27 154 62 225 65 130 6 140 3 685 -265 160 -78
371 -182 470 -230 239 -116 569 -278 900 -440 312 -153 358 -171 440 -171 76
0 96 5 201 42 100 37 131 61 139 109 10 63 -16 88 -176 167 -79 39 -508 252
-954 473 -2670 1326 -2339 1165 -2455 1195 -64 17 -115 22 -206 23 -67 1 -123
-1 -126 -3z"/>
<path d="M3955 4707 c-151 -50 -236 -184 -213 -335 38 -244 335 -341 510 -168
62 62 83 117 83 216 -1 98 -22 150 -85 211 -75 73 -203 106 -295 76z"/>
<path d="M5040 4507 c-26 -13 -83 -66 -144 -131 -222 -240 -311 -318 -436
-381 -182 -91 -362 -109 -599 -59 -193 41 -332 116 -619 333 -186 141 -239
170 -303 167 -59 -2 -114 -42 -128 -90 -29 -106 55 -226 336 -478 165 -148
170 -155 147 -199 -52 -102 -239 -245 -420 -322 -70 -30 -110 -43 -204 -63
-68 -15 -282 3 -480 40 -33 6 -415 73 -460 81 -81 13 -276 17 -317 6 -76 -21
-108 -77 -80 -137 25 -52 96 -96 297 -186 239 -107 337 -160 418 -228 101 -84
150 -165 178 -290 14 -66 33 -181 39 -235 3 -33 8 -69 10 -80 2 -11 6 -58 10
-105 3 -47 8 -107 10 -135 3 -27 7 -90 10 -140 32 -514 56 -703 107 -865 41
-127 95 -185 165 -177 93 10 157 108 212 324 11 43 23 94 26 113 3 19 8 42 10
50 6 22 20 103 29 180 3 25 8 54 10 65 2 11 7 45 11 75 3 30 8 66 10 80 2 14
9 63 15 110 16 127 21 162 25 190 2 14 6 48 9 75 4 28 8 61 11 75 3 14 7 39 9
55 6 36 34 197 42 240 22 121 67 282 101 365 39 97 152 312 203 389 82 122
180 211 233 211 7 0 12 -17 13 -43 0 -46 13 -310 19 -397 2 -30 7 -93 10 -140
12 -180 15 -217 20 -280 4 -36 8 -78 10 -95 2 -16 7 -66 10 -110 3 -44 8 -93
11 -110 2 -16 6 -52 8 -80 3 -27 7 -70 10 -95 3 -25 13 -99 21 -165 8 -66 17
-131 20 -145 3 -14 7 -43 10 -65 3 -22 7 -53 10 -70 3 -16 13 -68 21 -115 47
-260 115 -482 181 -592 80 -134 189 -128 257 15 24 52 73 212 80 265 2 15 11
72 19 127 9 55 19 127 22 160 3 33 8 78 10 100 6 57 15 160 20 230 9 124 16
232 20 310 13 250 16 296 20 355 3 36 7 103 10 150 8 123 25 321 31 352 2 15
6 49 9 75 11 105 42 234 75 304 11 25 15 26 49 17 59 -16 145 -66 191 -111
135 -132 278 -461 334 -772 3 -16 8 -39 10 -51 2 -12 7 -45 11 -74 4 -29 8
-60 10 -69 2 -9 6 -48 9 -86 4 -39 9 -88 11 -110 4 -39 13 -167 20 -310 2 -38
7 -108 10 -155 3 -47 8 -114 11 -150 25 -373 99 -576 227 -625 195 -74 316 51
353 365 11 97 13 132 19 325 15 542 18 611 31 705 13 100 15 117 25 170 36
189 110 344 205 423 65 55 228 124 414 177 246 70 294 90 324 134 30 46 24
129 -12 170 -41 45 -91 60 -207 59 -90 0 -282 -22 -415 -48 -13 -3 -42 -7 -65
-10 -63 -9 -87 -13 -130 -20 -281 -42 -507 -35 -676 24 -159 55 -311 151 -440
278 l-77 75 32 28 c17 15 44 38 60 51 72 59 255 251 309 324 109 146 143 251
108 331 -36 80 -114 109 -191 71z"/>
<path d="M2432 4090 c-195 -92 -236 -344 -82 -497 113 -112 307 -113 422 -1
70 68 93 123 92 223 0 98 -22 151 -88 217 -90 90 -227 113 -344 58z"/>
<path d="M5419 4106 c-136 -48 -211 -157 -208 -303 7 -322 450 -409 583 -114
66 148 8 317 -135 396 -44 24 -67 30 -129 32 -41 1 -91 -4 -111 -11z"/>
<path d="M946 2402 c1 -334 2 -612 3 -619 1 -12 29 -35 385 -313 115 -89 216
-169 225 -176 40 -33 401 -314 404 -314 1 0 2 231 1 513 -1 567 -2 579 -67
720 -34 73 -104 167 -161 218 -18 15 -167 125 -332 245 -164 119 -330 240
-369 269 -38 28 -74 54 -80 57 -7 4 -10 -198 -9 -600z"/>
</g>
</svg>
